<svg width="60" height="60" viewBox="0 0 60 60" fill="none" xmlns="http://www.w3.org/2000/svg">
<path d="M34.9676 29.0625C35.0599 29.0626 35.1502 29.0354 35.2272 28.9843C35.3041 28.9332 35.3643 28.8606 35.4001 28.7755C35.4359 28.6903 35.4457 28.5965 35.4284 28.5058C35.4111 28.4151 35.3674 28.3315 35.3027 28.2656L26.1152 18.9234C26.0499 18.8571 25.9664 18.8117 25.8752 18.7931C25.7841 18.7744 25.6894 18.7833 25.6033 18.8186C25.5173 18.854 25.4436 18.9141 25.3918 18.9914C25.34 19.0687 25.3124 19.1597 25.3125 19.2527V27.6562C25.3125 28.0292 25.4607 28.3869 25.7244 28.6506C25.9881 28.9143 26.3458 29.0625 26.7188 29.0625H34.9676Z" fill="white"/>
<path d="M23.0859 31.2891C22.6046 30.8142 22.2222 30.2487 21.9607 29.6251C21.6992 29.0016 21.5639 28.3324 21.5625 27.6562V16.875H13.125C11.1377 16.8809 9.23344 17.6729 7.82819 19.0782C6.42294 20.4834 5.63087 22.3877 5.625 24.375V50.625C5.625 52.6141 6.41518 54.5218 7.8217 55.9283C9.22822 57.3348 11.1359 58.125 13.125 58.125H30C31.9891 58.125 33.8968 57.3348 35.3033 55.9283C36.7098 54.5218 37.5 52.6141 37.5 50.625V32.8125H26.7188C26.0425 32.8115 25.3733 32.6764 24.7497 32.4149C24.1261 32.1534 23.5606 31.7707 23.0859 31.2891Z" fill="white"/>
<path d="M43.5938 14.0625H51.8426C51.9349 14.0626 52.0252 14.0354 52.1022 13.9843C52.1791 13.9332 52.2393 13.8606 52.2751 13.7755C52.3109 13.6903 52.3207 13.5965 52.3034 13.5058C52.2861 13.4151 52.2424 13.3315 52.1777 13.2656L42.9902 3.92341C42.9249 3.85711 42.8414 3.81175 42.7502 3.79309C42.6591 3.77443 42.5644 3.78333 42.4783 3.81864C42.3923 3.85396 42.3186 3.91409 42.2668 3.99139C42.215 4.06869 42.1874 4.15966 42.1875 4.25271V12.6562C42.1875 13.0292 42.3357 13.3869 42.5994 13.6506C42.8631 13.9143 43.2208 14.0625 43.5938 14.0625Z" fill="white"/>
<path d="M43.5938 17.8125C42.2295 17.8021 40.924 17.2555 39.9593 16.2908C38.9945 15.326 38.4479 14.0206 38.4375 12.6562V1.875H25.7813C23.9171 1.87717 22.1299 2.61866 20.8118 3.9368C19.4937 5.25495 18.7522 7.04211 18.75 8.90625V13.125H23.6859C24.316 13.1275 24.9393 13.2545 25.5201 13.4986C26.1009 13.7428 26.6277 14.0993 27.0703 14.5477L39.8625 27.5555C40.7549 28.461 41.2533 29.6825 41.2488 30.9539V46.875H47.4656C51.2754 46.875 54.3738 43.7203 54.3738 39.8438V17.8125H43.5938Z" fill="white"/>
</svg>
