<svg width="55" height="50" viewBox="0 0 55 50" fill="none" xmlns="http://www.w3.org/2000/svg">
<path d="M45.6796 10.6999C44.9596 9.89988 44.1296 9.19988 43.2596 8.72988L29.6996 1.21988C26.7996 -0.400117 22.0996 -0.400117 19.1996 1.21988L5.64956 8.71988C4.76956 9.18988 3.94956 9.86988 3.22956 10.6899C2.17956 11.8599 2.52956 13.7399 3.89956 14.5399L23.1496 25.6899C23.9496 26.1399 24.9296 26.1399 25.6996 25.6899L44.9496 14.5399C46.3296 13.7399 46.6796 11.8599 45.6796 10.6899V10.6999Z" fill="white"/>
<path d="M21.75 28.1L3.77 17.67C2.07 16.7 0 17.95 0 19.92V32.82C0 36.39 2.5 40.74 5.55 42.47C5.55 42.47 14.22 47.2 19.38 49.72C21.08 50.55 23 49.3 23 47.39V30.34C23 29.42 22.5 28.57 21.75 28.09V28.1Z" fill="white"/>
<path d="M30.2216 47.6499C29.3316 46.4299 28.8216 44.9999 28.7616 43.4999C28.7116 43.1499 28.6216 42.7299 28.4916 42.3299C28.3216 41.9899 28.1116 41.6799 27.8716 41.3899C26.8416 40.3099 26.1516 38.8799 25.9516 37.3199L25.9016 36.9899L25.9516 36.6599C26.1516 35.0999 26.8416 33.6699 27.9316 32.5299C28.1216 32.2999 28.3216 31.9899 28.4916 31.6499C28.6216 31.2699 28.7016 30.8599 28.7416 30.4599C28.7816 28.9799 29.3516 27.4499 30.3416 26.2399L30.3916 26.1899L27.1016 28.0999C26.3516 28.5699 25.8516 29.4199 25.8516 30.3499V47.3999C25.8516 49.2999 27.7816 50.5499 29.4816 49.7199C30.1216 49.4099 30.8016 49.0699 31.5216 48.6999C31.2216 48.5199 30.9216 48.3199 30.6516 48.0899L30.2216 47.6499Z" fill="white"/>
<path d="M32.9609 24.7C33.5909 24.49 34.2509 24.37 34.9309 24.34C35.2709 24.3 35.6909 24.2 36.1009 24.07C36.4309 23.9 36.7409 23.69 37.0309 23.45C38.1109 22.42 39.5309 21.73 41.0909 21.52L41.4309 21.48L41.7609 21.52C43.2709 21.73 44.6609 22.38 45.7809 23.42C46.0809 23.67 46.4109 23.88 46.7709 24.05C47.1709 24.18 47.5809 24.27 47.9909 24.31C48.2809 24.32 48.5609 24.35 48.8509 24.4V19.92C48.8509 17.95 46.7809 16.7 45.0809 17.67L32.9609 24.7Z" fill="white"/>
<path d="M53.1219 34.28C52.6719 33.75 52.3419 33.24 52.0819 32.7L52.0219 32.56C51.8219 31.96 51.6719 31.33 51.6019 30.7C51.5519 29.61 51.2119 28.65 50.6219 27.85C50.1019 27.43 49.4919 27.12 48.8519 26.96C48.5219 26.86 48.1719 26.81 47.8319 26.8C47.1219 26.74 46.5019 26.6 45.9019 26.39L45.7819 26.35C45.2019 26.08 44.6719 25.74 44.1819 25.34L44.0819 25.25C43.3419 24.57 42.4219 24.14 41.4319 24C40.3919 24.14 39.4519 24.59 38.7019 25.31C38.1719 25.76 37.6619 26.09 37.1219 26.35L36.9819 26.41C36.3819 26.62 35.7619 26.76 35.1319 26.83C34.0419 26.88 33.0819 27.22 32.2719 27.83C31.6319 28.61 31.2619 29.6 31.2319 30.61C31.1719 31.32 31.0319 31.94 30.8319 32.54L30.7719 32.67C30.5119 33.22 30.1819 33.73 29.7919 34.19C29.0219 35.01 28.5619 35.95 28.4219 36.99H28.4319C28.5619 38.02 29.0219 38.97 29.7319 39.72C30.1819 40.25 30.5119 40.76 30.7719 41.3L30.8319 41.44C31.0319 42.04 31.1719 42.67 31.2519 43.3C31.3019 44.39 31.6419 45.35 32.2319 46.16H32.2419C32.8919 46.7 33.6819 47.05 34.5119 47.16C34.6819 47.19 34.8519 47.2 35.0219 47.21C35.7319 47.27 36.3419 47.41 36.9319 47.61L37.0919 47.67C37.6219 47.94 38.1319 48.27 38.5919 48.65C39.4219 49.43 40.3819 49.88 41.4219 50H41.4319C42.4519 49.86 43.4019 49.41 44.1519 48.69C44.6819 48.25 45.1819 47.92 45.7219 47.65L45.8819 47.59C46.4819 47.38 47.1019 47.24 47.7219 47.17C48.8119 47.12 49.7719 46.79 50.5719 46.18H50.5819C51.2219 45.4 51.5919 44.4 51.6219 43.39C51.6819 42.67 51.8219 42.06 52.0219 41.46L52.0819 41.32C52.3419 40.78 52.6719 40.27 53.0619 39.81C53.8319 38.99 54.2919 38.05 54.4219 37.01C54.2919 35.98 53.8319 35.03 53.1219 34.28ZM37.4719 35.77L38.4019 36.58L40.2819 38.5L45.7119 32.27L47.6319 34.09L41.2919 41.15V41.13L41.1819 41.24L40.7419 41.69L39.9419 41.57L39.5519 41.4L39.3619 41.22L35.6419 37.5L37.4719 35.77Z" fill="white"/>
</svg>
